<?xml version="1.0" encoding="UTF-8"?>
<svg viewBox="0 0 80 80" fill="none" xmlns="http://www.w3.org/2000/svg">
  <!-- Hexagonal Background -->
  <path d="M20 15 L60 15 L75 40 L60 65 L20 65 L5 40 Z" fill="url(#hexGradient)" stroke="url(#hexBorder)" stroke-width="2"/>
  
  <!-- Inner Hexagon -->
  <path d="M25 22 L55 22 L67 40 L55 58 L25 58 L13 40 Z" fill="rgba(15, 23, 42, 0.3)" stroke="rgba(255,255,255,0.1)" stroke-width="1"/>
  
  <!-- G Letter - Modern Style -->
  <path d="M28 32 C28 29, 29 28, 32 28 L38 28 C41 28, 42 29, 42 32 L42 34 L40 34 L40 32 C40 31, 39 31, 38 31 L32 31 C31 31, 30 31, 30 32 L30 48 C30 49, 31 49, 32 49 L36 49 L36 44 L34 44 L34 42 L38 42 L38 49 C38 52, 37 52, 36 52 L32 52 C29 52, 28 51, 28 48 Z" fill="white" opacity="0.95"/>
  
  <!-- R Letter - Modern Style -->
  <path d="M44 28 L44 52 L46 52 L46 42 L48 42 L50 52 L52 52 L49.5 41.5 C51 41, 52 39.5, 52 38 L52 32 C52 29, 51 28, 48 28 Z M46 31 L48 31 C49 31, 50 31, 50 32 L50 38 C50 39, 49 39, 48 39 L46 39 Z" fill="white" opacity="0.95"/>
  
  <!-- Geometric Accent Elements -->
  <circle cx="22" cy="25" r="1.5" fill="rgba(102, 126, 234, 0.6)"/>
  <circle cx="58" cy="55" r="1.5" fill="rgba(118, 75, 162, 0.6)"/>
  <rect x="56" y="23" width="2" height="2" fill="rgba(255,255,255,0.4)" rx="0.5"/>
  <rect x="22" y="53" width="2" height="2" fill="rgba(255,255,255,0.3)" rx="0.5"/>
  
  <!-- Tech-inspired Lines -->
  <line x1="15" y1="30" x2="18" y2="30" stroke="rgba(102, 126, 234, 0.4)" stroke-width="1"/>
  <line x1="62" y1="50" x2="65" y2="50" stroke="rgba(118, 75, 162, 0.4)" stroke-width="1"/>
  
  <!-- Gradient Definitions -->
  <defs>
    <linearGradient id="hexGradient" x1="0%" y1="0%" x2="100%" y2="100%">
      <stop offset="0%" stop-color="#667eea" stop-opacity="0.9" />
      <stop offset="50%" stop-color="#764ba2" stop-opacity="0.95" />
      <stop offset="100%" stop-color="#667eea" stop-opacity="0.9" />
    </linearGradient>
    <linearGradient id="hexBorder" x1="0%" y1="0%" x2="100%" y2="100%">
      <stop offset="0%" stop-color="#8b5cf6" stop-opacity="0.6" />
      <stop offset="100%" stop-color="#06b6d4" stop-opacity="0.6" />
    </linearGradient>
  </defs>
</svg>
